# xmcd
#
# Track frame offsets:
#	183
#	12045
#	24865
#	37730
#	53078
#	67878
#	78480
#	90325
#	103878
#	117433
#	128905
#	136635
#	151513
#	165340
#
# Disc length: 2369
#
# Revision: 1
# Processed by: cddbd v1.5.1PL0 Copyright (c) Steve Scherf et al.
# Submitted via: dBpowerAMP V4.0
# Normalized: r0:TRMNUM
#
DISCID=91093f0e
DTITLE=Peppermint Harris - Being Black Twice
DYEAR=1900
DGENRE=
TTITLE0=I'll Wipe Away Your Tears
TTITLE1=All for You 
TTITLE2=Here Comes the Blues 
TTITLE3=I'd Rather Be Hurt 
TTITLE4=Sinner's Prayer
TTITLE5=I'm So Lonesome 
TTITLE6=Cherry Red
TTITLE7=Key to the Highway 
TTITLE8=The President's Lawyer 
TTITLE9=Talk About Love
TTITLE10=Is There Someone Else
TTITLE11=I'll Learn to Love Again 
TTITLE12=To Be With the One You Love
TTITLE13=Fantasy
EXTD=
EXTT0=
EXTT1=
EXTT2=
EXTT3=
EXTT4=
EXTT5=
EXTT6=
EXTT7=
EXTT8=
EXTT9=
EXTT10=
EXTT11=
EXTT12=
EXTT13=
PLAYORDER=
